# xmcd
# 
# Track frame offsets:
#     182
#     16347
#     27172
#     42245
#     52875
#     67700
#     83922
#     96340
#     105040
#     114712
# 
# Disc length: 1816
# 
# Revision: 0
# Processed by: cddbd v1.5.2PL0 Copyright (c) Steve Scherf et al.
# Submitted via: BonkEnc v1.0.8
# 
DISCID=6c07160a
DTITLE=Julie Daraîche - Ce soir mon coeur fait mal
DYEAR=2007
DGENRE=Country
TTITLE0=Les cowboys du Québec
TTITLE1=Par un beau samedi soir
TTITLE2=Je pleure mon infortune
TTITLE3=Un verre, une bouteille
TTITLE4=Un "aller-simple"
TTITLE5=Ce soir mon coeur fait mal
TTITLE6=Nicholas
TTITLE7=La nuit dernière, j'ai fait un songe
TTITLE8=Le reel de l'inconnu
TTITLE9=Medley "Au temps de la bonne chanson"
EXTD=
EXTT0=
EXTT1=
EXTT2=
EXTT3=
EXTT4=
EXTT5=
EXTT6=
EXTT7=
EXTT8=
EXTT9=
PLAYORDER=
